<?xml version="1.0" standalone="no"?>
<!DOCTYPE svg PUBLIC "-//W3C//DTD SVG 20010904//EN"
 "http://www.w3.org/TR/2001/REC-SVG-20010904/DTD/svg10.dtd">
<svg version="1.0" xmlns="http://www.w3.org/2000/svg"
 width="289.000000pt" height="241.000000pt" viewBox="0 0 289.000000 241.000000"
 preserveAspectRatio="xMidYMid meet">

<g transform="translate(0.000000,241.000000) scale(0.100000,-0.100000)"
fill="#000000" stroke="none">
<path d="M1216 2365 c-118 -42 -173 -199 -104 -298 82 -117 233 -128 325 -24
52 59 64 124 38 198 -22 61 -69 107 -129 124 -60 18 -80 18 -130 0z m153 -23
c57 -28 94 -83 99 -146 6 -73 -2 -99 -44 -146 -65 -72 -150 -86 -234 -38 -130
73 -127 249 5 329 39 25 128 25 174 1z"/>
<path d="M1215 2336 c-131 -58 -140 -247 -15 -313 102 -54 217 -5 251 106 40
134 -109 264 -236 207z m152 -22 c32 -20 70 -74 78 -111 21 -103 -88 -211
-192 -189 -74 16 -133 87 -133 157 0 70 52 139 119 160 33 10 99 1 128 -17z"/>
<path d="M1310 2297 c0 -8 -13 -17 -30 -21 -21 -4 -34 -14 -41 -33 -8 -23 -5
-33 22 -71 24 -33 29 -46 20 -55 -9 -9 -19 -8 -42 6 -17 9 -35 15 -40 11 -14
-8 -11 -34 6 -40 8 -4 15 -14 15 -24 0 -26 19 -35 33 -17 7 8 24 17 38 21 29
6 52 47 42 73 -4 10 -17 31 -30 47 -31 37 -17 57 22 32 37 -25 64 1 33 32 -7
7 -13 20 -13 30 0 9 -8 18 -17 20 -11 2 -18 -3 -18 -11z m17 -19 c-2 -7 3 -22
12 -33 9 -12 10 -15 1 -7 -8 6 -27 12 -42 12 -36 0 -38 -31 -3 -72 36 -43 29
-89 -14 -88 -13 1 -13 2 2 11 24 14 21 42 -8 77 -14 17 -25 36 -25 44 0 20 21
38 42 38 10 0 21 7 24 15 7 18 18 20 11 3z m-67 -188 c0 -4 -8 -14 -17 -21
-13 -11 -15 -11 -9 -1 5 8 1 21 -10 33 -18 20 -18 21 9 8 15 -7 27 -15 27 -19z"/>
<path d="M1764 2176 c-55 -25 -84 -56 -104 -108 -6 -18 -19 -46 -27 -62 -14
-25 -16 -125 -17 -785 l-1 -756 -192 -5 c-138 -4 -196 -9 -205 -18 -10 -10
-14 -68 -16 -227 l-3 -215 503 0 504 0 -4 35 c-4 29 0 36 19 44 40 14 64 -1
64 -43 l0 -36 283 0 c219 0 282 3 282 13 0 8 4 7 10 -3 7 -11 10 4 10 50 0 50
0 1462 0 1863 0 59 -3 71 -25 92 l-24 25 -379 0 -378 0 -12 34 c-7 19 -30 50
-52 69 -66 61 -151 73 -236 33z m148 4 c171 -48 188 -307 25 -375 -81 -34
-181 -11 -232 52 -125 157 16 376 207 323z m701 -157 c-101 -2 -265 -2 -365 0
-101 1 -19 2 182 2 201 0 283 -1 183 -2z m-976 -75 c-3 -8 -6 -5 -6 6 -1 11 2
17 5 13 3 -3 4 -12 1 -19z m1220 0 c-3 -8 -6 -5 -6 6 -1 11 2 17 5 13 3 -3 4
-12 1 -19z m-1127 -133 c74 -54 163 -56 244 -5 l47 30 419 0 420 0 0 -850 0
-850 -420 0 -420 0 0 144 c0 118 -3 147 -16 160 -13 13 -45 16 -195 16 l-179
0 0 690 0 690 33 0 c20 0 47 -10 67 -25z m-320 -1464 c0 -28 -28 -47 -48 -34
-24 15 -27 44 -7 59 22 17 55 1 55 -25z m460 -131 c0 -5 -4 -10 -10 -10 -5 0
-10 5 -10 10 0 6 5 10 10 10 6 0 10 -4 10 -10z m40 0 c0 -5 -4 -10 -10 -10 -5
0 -10 5 -10 10 0 6 5 10 10 10 6 0 10 -4 10 -10z m40 0 c0 -5 -4 -10 -10 -10
-5 0 -10 5 -10 10 0 6 5 10 10 10 6 0 10 -4 10 -10z m-535 -155 c0 -11 -99
-20 -122 -11 -8 3 -11 11 -8 16 8 14 130 9 130 -5z m163 -3 c3 -10 -11 -12
-59 -10 -40 2 -64 8 -67 16 -3 10 11 12 59 10 40 -2 64 -8 67 -16z m167 3 c0
-11 -99 -20 -122 -11 -8 3 -11 11 -8 16 8 14 130 9 130 -5z m159 9 c31 -12 4
-24 -54 -24 -55 0 -78 9 -63 24 8 8 96 8 117 0z"/>
<path d="M1772 2149 c-105 -52 -134 -195 -57 -282 30 -34 99 -67 140 -67 55 0
130 44 159 92 93 159 -77 338 -242 257z m158 -11 c62 -32 90 -77 90 -145 0
-62 -17 -100 -60 -136 -62 -52 -139 -53 -205 -2 -47 35 -65 73 -65 135 0 80
34 129 107 156 54 19 83 17 133 -8z"/>
<path d="M1845 2056 c-10 -14 -15 -40 -13 -67 2 -35 0 -44 -15 -47 -12 -2 -22
7 -32 32 -11 26 -19 34 -31 29 -11 -4 -14 -14 -11 -33 3 -15 1 -32 -5 -38 -6
-6 -8 -18 -4 -27 4 -12 10 -13 24 -6 11 6 24 6 33 0 22 -14 45 -11 70 10 19
15 23 29 24 71 0 63 20 78 38 31 14 -38 43 -38 41 -1 -1 14 5 29 13 33 26 16
-4 33 -61 35 -49 2 -57 -1 -71 -22z m71 3 c3 -6 18 -8 33 -5 21 5 23 4 8 -4
-13 -9 -15 -15 -7 -31 6 -10 7 -19 3 -19 -5 0 -13 10 -18 23 -7 14 -19 22 -35
22 -23 0 -25 -4 -28 -55 -2 -30 -8 -60 -14 -67 -12 -15 -64 -17 -73 -3 -3 5
-13 7 -23 4 -12 -4 -13 -3 -4 3 9 7 10 16 3 36 -6 15 -7 27 -3 27 4 0 13 -13
19 -30 26 -69 79 -42 74 39 -2 39 1 51 16 60 23 14 40 14 49 0z"/>
<path d="M1782 1608 c3 -80 4 -83 27 -83 13 0 26 6 29 13 2 7 -5 12 -17 12
-12 0 -21 5 -21 10 0 7 153 10 440 10 287 0 440 -3 440 -10 0 -5 -7 -10 -16
-10 -9 0 -14 -6 -11 -12 2 -7 15 -13 28 -13 23 0 24 3 27 83 l3 82 -31 0 c-31
0 -41 -16 -15 -26 50 -20 -26 -24 -419 -24 -388 0 -492 6 -426 23 31 8 24 27
-10 27 l-31 0 3 -82z m686 -25 c-119 -2 -317 -2 -440 0 -123 1 -25 2 217 2
242 0 342 -1 223 -2z"/>
<path d="M1670 1335 l0 -95 95 0 95 0 0 95 0 95 -95 0 -95 0 0 -95z m180 5 l0
-80 -80 0 -80 0 0 80 0 80 80 0 80 0 0 -80z"/>
<path d="M1900 1380 c0 -20 7 -20 460 -20 453 0 460 0 460 20 0 20 -7 20 -460
20 -453 0 -460 0 -460 -20z m900 0 c0 -7 -153 -10 -440 -10 -287 0 -440 3
-440 10 0 7 153 10 440 10 287 0 440 -3 440 -10z"/>
<path d="M1902 1298 c3 -23 3 -23 231 -26 l227 -2 0 25 0 25 -231 0 -230 0 3
-22z m448 2 c0 -6 -78 -10 -215 -10 -137 0 -215 4 -215 10 0 6 78 10 215 10
137 0 215 -4 215 -10z"/>
<path d="M1670 1025 l0 -95 95 0 95 0 0 95 0 95 -95 0 -95 0 0 -95z m180 -5
l0 -80 -80 0 -80 0 0 80 0 80 80 0 80 0 0 -80z"/>
<path d="M1900 1065 l0 -25 460 0 460 0 0 25 0 25 -460 0 -460 0 0 -25z m900
-5 c0 -7 -153 -10 -440 -10 -287 0 -440 3 -440 10 0 7 153 10 440 10 287 0
440 -3 440 -10z"/>
<path d="M1907 1003 c-4 -3 -7 -15 -7 -25 0 -17 14 -18 230 -18 l230 0 0 25 0
25 -223 0 c-123 0 -227 -3 -230 -7z m443 -23 c0 -6 -78 -10 -215 -10 -137 0
-215 4 -215 10 0 6 78 10 215 10 137 0 215 -4 215 -10z"/>
<path d="M1670 705 l0 -95 95 0 95 0 0 95 0 95 -95 0 -95 0 0 -95z m180 0 l0
-85 -80 0 -80 0 0 85 0 85 80 0 80 0 0 -85z"/>
<path d="M1902 748 l3 -23 455 0 455 0 3 23 3 22 -461 0 -461 0 3 -22z m898 2
c0 -7 -153 -10 -440 -10 -287 0 -440 3 -440 10 0 7 153 10 440 10 287 0 440
-3 440 -10z"/>
<path d="M1902 668 c3 -23 3 -23 231 -26 l227 -2 0 25 0 25 -231 0 -230 0 3
-22z m448 2 c0 -6 -78 -10 -215 -10 -137 0 -215 4 -215 10 0 6 78 10 215 10
137 0 215 -4 215 -10z"/>
<path d="M2175 577 c-49 -20 -75 -40 -97 -75 -63 -101 -28 -235 76 -289 41
-22 141 -22 182 0 77 40 123 138 104 221 -12 53 -55 111 -98 132 -46 22 -128
27 -167 11z m172 -32 c98 -58 112 -207 27 -287 -37 -34 -74 -48 -130 -48 -140
0 -224 135 -165 266 44 97 166 128 268 69z"/>
<path d="M765 2016 c-66 -29 -104 -105 -92 -182 18 -107 145 -166 242 -111
110 62 116 204 13 280 -34 26 -121 33 -163 13z m153 -23 c92 -69 93 -190 3
-251 -67 -44 -129 -41 -186 9 -69 61 -71 155 -5 221 21 21 44 38 51 38 8 0 0
-9 -18 -20 -119 -72 -83 -240 56 -266 81 -16 169 73 158 158 -10 73 -52 113
-134 128 l-48 9 49 -3 c27 -2 59 -12 74 -23z m-8 -21 c121 -88 26 -275 -116
-226 -68 23 -103 88 -84 154 25 88 128 125 200 72z"/>
<path d="M774 1939 c-3 -6 -17 -15 -31 -20 -24 -9 -25 -11 -9 -28 9 -9 16 -22
16 -28 0 -15 34 -43 52 -43 8 0 27 9 41 20 36 28 53 26 34 -4 -15 -22 -15 -25
-1 -37 13 -11 18 -10 25 4 5 9 16 14 23 11 7 -3 16 2 20 11 3 9 0 18 -9 21 -8
4 -15 15 -15 25 0 11 -11 24 -25 31 -22 10 -30 8 -55 -10 -16 -12 -34 -22 -40
-22 -13 0 -13 27 0 35 6 3 10 12 10 20 0 16 -27 27 -36 14z m121 -59 c3 -6 -1
-7 -9 -4 -9 3 -27 -4 -42 -15 -15 -12 -35 -21 -44 -21 -19 0 -46 27 -37 37 4
3 9 -2 13 -11 8 -22 37 -20 59 4 19 21 50 26 60 10z"/>
<path d="M545 1598 c-57 -20 -95 -74 -95 -133 0 -35 28 -87 42 -79 7 4 8 3 4
-4 -9 -14 30 -39 74 -47 39 -7 95 9 85 25 -3 5 0 7 8 4 18 -7 44 28 58 79 26
96 -80 189 -176 155z m130 -38 c10 -11 16 -20 13 -20 -3 0 -13 9 -23 20 -10
11 -16 20 -13 20 3 0 13 -9 23 -20z m-14 -19 c23 -23 29 -38 29 -72 0 -40 -1
-41 -15 -23 -8 10 -15 24 -15 30 0 27 -55 31 -82 7 -23 -21 -33 -11 -17 16 16
24 7 37 -18 26 -10 -5 -24 -7 -30 -6 -7 1 -13 -7 -13 -19 0 -11 4 -20 9 -20 5
0 11 -9 14 -20 7 -29 35 -36 67 -16 35 20 46 21 30 1 -18 -22 -3 -35 33 -28
l32 5 -26 -27 c-48 -50 -133 -33 -164 32 -49 103 85 194 166 114z m-194 -88
c-3 -10 -5 -4 -5 12 0 17 2 24 5 18 2 -7 2 -21 0 -30z m108 -3 c-13 -12 -17
-12 -30 0 -12 13 -11 15 15 15 26 0 28 -2 15 -15z m-91 -36 c3 -8 2 -12 -4 -9
-6 3 -10 10 -10 16 0 14 7 11 14 -7z"/>
<path d="M428 1109 c-10 -5 -18 -17 -18 -24 0 -11 -13 -15 -50 -15 -29 0 -50
-5 -50 -11 0 -7 -11 -8 -31 -4 -20 5 -29 4 -25 -3 4 -6 -2 -8 -16 -4 -13 3
-19 1 -15 -5 5 -7 -1 -9 -15 -5 -12 3 -19 1 -15 -5 3 -5 -4 -9 -16 -9 -17 1
-23 -6 -25 -28 -2 -15 0 -26 5 -23 4 3 8 -11 8 -31 0 -21 4 -58 8 -84 l8 -48
-49 0 c-35 0 -57 -6 -76 -21 l-26 -20 0 -385 0 -384 535 0 535 0 0 313 c0 267
-2 316 -16 335 -8 12 -22 22 -30 22 -10 0 -14 14 -14 58 0 68 -11 82 -61 82
-33 0 -37 3 -35 24 0 13 5 22 10 18 5 -3 7 5 4 16 -4 12 -3 20 2 17 4 -3 10 4
13 14 6 23 -36 67 -53 56 -6 -4 -9 -1 -8 7 2 7 -5 12 -14 12 -10 -1 -16 2 -13
6 6 9 -83 54 -128 65 -15 4 -31 14 -36 22 -4 8 -20 16 -34 16 -15 1 -27 6 -27
11 0 4 -12 5 -27 2 -18 -4 -23 -3 -15 2 27 18 -160 29 -190 11z m115 -6 c-7
-2 -19 -2 -25 0 -7 3 -2 5 12 5 14 0 19 -2 13 -5z m74 -48 c6 -2 19 -19 28
-39 16 -34 16 -35 -17 -95 -33 -60 -33 -60 -70 -54 -49 7 -95 -12 -119 -51
-22 -36 -23 -29 -7 84 10 78 14 87 45 113 18 16 33 35 33 43 0 10 11 12 48 8
26 -3 52 -7 59 -9z m-235 -52 c13 -15 14 -30 6 -95 -8 -58 -14 -78 -25 -78
-27 0 -83 -32 -95 -54 -7 -11 -14 -37 -17 -55 -5 -28 -10 -13 -25 77 l-18 111
21 27 c11 15 21 35 21 45 0 34 106 51 132 22z m458 -48 c35 -18 48 -29 44 -40
-4 -9 -1 -29 6 -46 12 -28 10 -37 -25 -110 -39 -79 -65 -101 -65 -54 0 42 -49
86 -101 92 -38 4 -50 1 -77 -22 -18 -15 -32 -25 -32 -22 0 2 23 45 51 96 35
62 56 91 69 91 10 0 28 9 41 20 30 25 30 25 89 -5z m-270 -140 c0 -9 -11 -20
-25 -25 -14 -5 -25 -14 -25 -20 0 -5 -4 -10 -9 -10 -5 0 -7 10 -4 21 5 18 3
20 -16 14 -25 -8 -28 10 -3 24 28 17 82 14 82 -4z m-200 -42 c0 -10 -9 -29
-20 -43 -16 -20 -20 -22 -20 -7 0 20 -16 23 -23 5 -7 -21 -19 -1 -13 20 11 34
76 55 76 25z m69 -71 c11 -20 9 -22 -15 -22 -22 0 -25 3 -20 23 3 12 6 33 7
47 l1 25 7 -26 c5 -14 14 -35 20 -47z m71 28 c13 0 9 -22 -6 -27 -17 -5 -32
12 -39 42 l-6 30 19 -22 c11 -13 25 -23 32 -23z m232 13 c19 -17 25 -73 8 -73
-5 0 -10 6 -10 14 0 25 -26 39 -50 26 -17 -9 -21 -9 -18 4 2 8 0 15 -4 15 -35
3 -38 0 -32 -26 4 -16 12 -32 18 -36 7 -5 3 -7 -9 -5 -31 5 -33 61 -3 82 29
21 77 20 100 -1z m-160 -33 c-2 -17 -10 -30 -18 -30 -12 0 -12 5 1 30 9 17 17
30 19 30 1 0 1 -13 -2 -30z m-255 -30 c23 -18 23 -20 6 -20 -19 0 -43 17 -43
32 0 13 10 9 37 -12z m378 -9 c-3 -6 -11 -11 -16 -11 -5 0 -4 6 3 14 14 16 24
13 13 -3z"/>
</g>
</svg>
