<?xml version="1.0" ?>
<!DOCTYPE svg  PUBLIC '-//W3C//DTD SVG 1.1//EN'  'http://www.w3.org/Graphics/SVG/1.1/DTD/svg11.dtd'>
<!-- Uploaded to: SVG Repo, www.svgrepo.com, Generator: SVG Repo Mixer Tools -->
<svg fill="#000000" width="800px" height="800px" viewBox="0 0 32 32" style="fill-rule:evenodd;clip-rule:evenodd;stroke-linejoin:round;stroke-miterlimit:2;" version="1.1" xml:space="preserve" xmlns="http://www.w3.org/2000/svg" xmlns:serif="http://www.serif.com/" xmlns:xlink="http://www.w3.org/1999/xlink">
<g transform="matrix(1,0,0,1,-432,-240)">
<g transform="matrix(1,0,0,1,-1,1)">
<path d="M436,251C436,245.481 440.481,241 446,241L446,251L436,251" style="fill:rgb(144,224,239);"/>
</g>
<g transform="matrix(1,0,0,1,-1,0)">
<circle cx="442" cy="268" r="2" style="fill:rgb(144,224,239);"/>
</g>
<g transform="matrix(1,0,0,1,11,0)">
<circle cx="442" cy="268" r="2" style="fill:rgb(144,224,239);"/>
</g>
<g transform="matrix(1.23529,0,0,1.1,-106.294,-27.4)">
<path d="M457.619,254L438.19,254C438.19,254 439.602,259.284 440.273,261.795C440.478,262.564 441.109,263.091 441.824,263.091C444.467,263.091 450.744,263.091 453.285,263.091C453.947,263.091 454.542,262.638 454.788,261.948C455.658,259.506 457.619,254 457.619,254Z" style="fill:rgb(144,224,239);"/>
</g>
<g transform="matrix(1,0,0,1,-1,0)">
<path d="M442,265C440.344,265 439,266.344 439,268C439,269.656 440.344,271 442,271C443.656,271 445,269.656 445,268C445,266.344 443.656,265 442,265ZM442,267C442.552,267 443,267.448 443,268C443,268.552 442.552,269 442,269C441.448,269 441,268.552 441,268C441,267.448 441.448,267 442,267Z" style="fill:rgb(25,144,167);"/>
</g>
<path d="M459.411,253.664L460.189,251.576L460.719,250C460.719,250 462,250 462,250C462.552,250 463,249.552 463,249C463,248.448 462.552,248 462,248L460,248C459.571,248 459.189,248.274 459.052,248.681L458.272,251L446,251L446,241L445,241C439.299,241 434.606,245.347 434.054,250.904C434.036,251.086 434.022,251.367 434.012,251.597C433.996,251.933 434.038,252.273 434.136,252.599C434.507,253.838 435.901,258.482 436.615,260.862C436.995,262.131 438.163,263 439.488,263C442.754,263 450.507,263 453.646,263C454.873,263 455.976,262.253 456.431,261.114L459.411,253.664ZM457.523,253L436.344,253.001L438.53,260.287C438.657,260.71 439.046,261 439.488,261C439.488,261 453.646,261 453.646,261C454.055,261 454.423,260.751 454.574,260.371L457.523,253ZM436.55,248.896C436.305,249.564 436.136,250.269 436.055,251.001L440.075,251L436.55,248.896ZM439.415,244.944C438.648,245.552 437.982,246.282 437.447,247.106C437.469,247.117 437.491,247.129 437.513,247.141L442.836,250.32L439.415,244.944ZM444,248.423L444,243.055C442.975,243.169 442.002,243.454 441.111,243.883L444,248.423Z" style="fill:rgb(25,144,167);"/>
<g transform="matrix(1,0,0,1,11,0)">
<path d="M442,265C440.344,265 439,266.344 439,268C439,269.656 440.344,271 442,271C443.656,271 445,269.656 445,268C445,266.344 443.656,265 442,265ZM442,267C442.552,267 443,267.448 443,268C443,268.552 442.552,269 442,269C441.448,269 441,268.552 441,268C441,267.448 441.448,267 442,267Z" style="fill:rgb(25,144,167);"/>
</g>
</g>
</svg>