<?xml version="1.0" ?>
<!DOCTYPE svg  PUBLIC '-//W3C//DTD SVG 1.1//EN'  'http://www.w3.org/Graphics/SVG/1.1/DTD/svg11.dtd'>
<!-- Uploaded to: SVG Repo, www.svgrepo.com, Generator: SVG Repo Mixer Tools -->
<svg width="800px" height="800px" viewBox="0 0 512 512" enable-background="new 0 0 512 512" id="Layer_1" version="1.1" xml:space="preserve" xmlns="http://www.w3.org/2000/svg" xmlns:xlink="http://www.w3.org/1999/xlink">
<g>
<g>
<path d="M348,138.5h-0.333c-5.522,0-10-4.477-10-10s4.478-10,10-10H348c5.522,0,10,4.477,10,10    S353.522,138.5,348,138.5z" fill="#444B54"/>
</g>
<g>
<path d="M381,426H131c-12.131,0-22-9.869-22-22V108c0-12.131,9.869-22,22-22h250c12.131,0,22,9.869,22,22v296    C403,416.131,393.131,426,381,426z M131,106c-1.103,0-2,0.897-2,2v296c0,1.103,0.897,2,2,2h250c1.103,0,2-0.897,2-2V108    c0-1.103-0.897-2-2-2H131z" fill="#444B54"/>
</g>
<g>
<path d="M381,171H131c-12.131,0-22-9.869-22-22v-41c0-12.131,9.869-22,22-22h250c12.131,0,22,9.869,22,22v41    C403,161.131,393.131,171,381,171z M131,106c-1.103,0-2,0.897-2,2v41c0,1.103,0.897,2,2,2h250c1.103,0,2-0.897,2-2v-41    c0-1.103-0.897-2-2-2H131z" fill="#444B54"/>
</g>
<g>
<path d="M256,378c-41.355,0-75-33.645-75-75s33.645-75,75-75s75,33.645,75,75S297.355,378,256,378z M256,248    c-30.327,0-55,24.673-55,55s24.673,55,55,55s55-24.673,55-55S286.327,248,256,248z" fill="#444B54"/>
</g>
<g>
<path d="M187.333,138.5h-40.666c-5.522,0-10-4.477-10-10s4.478-10,10-10h40.666c5.522,0,10,4.477,10,10    S192.855,138.5,187.333,138.5z" fill="#444B54"/>
</g>
<g>
<path d="M348,138.5h-0.333c-5.522,0-10-4.477-10-10s4.478-10,10-10H348c5.522,0,10,4.477,10,10    S353.522,138.5,348,138.5z" fill="#444B54"/>
</g>
<g>
<path d="M393,404c0,6.627-5.373,12-12,12H131c-6.627,0-12-5.373-12-12V108c0-6.627,5.373-12,12-12h250    c6.627,0,12,5.373,12,12V404z" fill="#55939C"/>
<path d="M381,426H131c-12.131,0-22-9.869-22-22V108c0-12.131,9.869-22,22-22h250c12.131,0,22,9.869,22,22v296    C403,416.131,393.131,426,381,426z M131,106c-1.103,0-2,0.897-2,2v296c0,1.103,0.897,2,2,2h250c1.103,0,2-0.897,2-2V108    c0-1.103-0.897-2-2-2H131z" fill="#444B54"/>
</g>
<g>
<path d="M393,149c0,6.627-5.373,12-12,12H131c-6.627,0-12-5.373-12-12v-41c0-6.627,5.373-12,12-12h250    c6.627,0,12,5.373,12,12V149z" fill="#8F8F99"/>
<path d="M381,171H131c-12.131,0-22-9.869-22-22v-41c0-12.131,9.869-22,22-22h250c12.131,0,22,9.869,22,22v41    C403,161.131,393.131,171,381,171z M131,106c-1.103,0-2,0.897-2,2v41c0,1.103,0.897,2,2,2h250c1.103,0,2-0.897,2-2v-41    c0-1.103-0.897-2-2-2H131z" fill="#444B54"/>
</g>
<g>
<circle cx="256" cy="303" fill="#F16259" r="65"/>
<path d="M256,378c-41.355,0-75-33.645-75-75s33.645-75,75-75s75,33.645,75,75S297.355,378,256,378z M256,248    c-30.327,0-55,24.673-55,55s24.673,55,55,55s55-24.673,55-55S286.327,248,256,248z" fill="#444B54"/>
</g>
<g>
<path d="M187.333,138.5h-40.666c-5.522,0-10-4.477-10-10s4.478-10,10-10h40.666c5.522,0,10,4.477,10,10    S192.855,138.5,187.333,138.5z" fill="#444B54"/>
</g>
</g>
</svg>