<?xml version="1.0" encoding="iso-8859-1"?>
<!-- Uploaded to: SVG Repo, www.svgrepo.com, Generator: SVG Repo Mixer Tools -->
<svg height="800px" width="800px" version="1.1" id="Layer_1" xmlns="http://www.w3.org/2000/svg" xmlns:xlink="http://www.w3.org/1999/xlink" 
	 viewBox="0 0 512.001 512.001" xml:space="preserve">
<path style="fill:#E4AAA9;" d="M310.801,334.162H178.498c-23.247,0-42.814-17.4-45.53-40.487L112.833,85.174h263.634
	l-20.136,208.501C353.615,316.762,334.048,334.162,310.801,334.162z"/>
<g>
	<path style="fill:#E0315B;" d="M178.633,334.162h132.034c23.673,0,43.945,16.958,48.128,40.258l17.672,122.934H112.833
		l17.672-122.934C134.687,351.119,154.96,334.162,178.633,334.162z"/>
	<path style="fill:#E0315B;" d="M362.797,85.174H126.502l0,0c0-38.952,31.577-70.528,70.528-70.528h95.238
		C331.22,14.646,362.797,46.222,362.797,85.174L362.797,85.174z"/>
</g>
<circle style="fill:#E4AAA9;" cx="244.653" cy="415.765" r="34.907"/>
<path d="M244.65,465.31c-27.324,0-49.553-22.23-49.553-49.553s22.23-49.553,49.553-49.553s49.553,22.23,49.553,49.553
	S271.972,465.31,244.65,465.31z M244.65,395.497c-11.172,0-20.26,9.088-20.26,20.26s9.089,20.26,20.26,20.26
	s20.26-9.088,20.26-20.26S255.822,395.497,244.65,395.497z"/>
<path d="M303.235,179.18c-0.952,0-1.919-0.103-2.856-0.293c-0.937-0.19-1.86-0.469-2.739-0.835c-0.893-0.366-1.743-0.82-2.534-1.347
	c-0.806-0.542-1.552-1.141-2.226-1.831c-2.724-2.723-4.291-6.488-4.291-10.353c0-0.952,0.103-1.905,0.293-2.856
	c0.176-0.939,0.469-1.862,0.835-2.739c0.366-0.877,0.806-1.728,1.333-2.534c0.542-0.791,1.157-1.553,1.831-2.226
	c0.674-0.674,1.421-1.289,2.226-1.816c0.791-0.526,1.64-0.981,2.534-1.347c0.879-0.366,1.801-0.643,2.739-0.835
	c4.76-0.951,9.813,0.601,13.211,3.998c0.674,0.674,1.289,1.434,1.816,2.226c0.527,0.807,0.981,1.656,1.347,2.534
	s0.659,1.8,0.849,2.739c0.19,0.951,0.278,1.904,0.278,2.856c0,3.867-1.567,7.631-4.291,10.353c-0.674,0.69-1.421,1.289-2.226,1.831
	c-0.791,0.527-1.64,0.981-2.519,1.347c-0.893,0.366-1.816,0.644-2.739,0.835C305.154,179.078,304.187,179.18,303.235,179.18z"/>
<path d="M259.296,258.534c-3.852,0-7.631-1.566-10.355-4.291c-0.674-0.688-1.289-1.435-1.816-2.228
	c-0.527-0.806-0.981-1.655-1.347-2.532c-0.366-0.88-0.659-1.801-0.835-2.739c-0.19-0.937-0.293-1.904-0.293-2.856
	c0-0.967,0.103-1.919,0.293-2.871c0.176-0.937,0.469-1.86,0.835-2.739c0.366-0.879,0.82-1.728,1.347-2.532
	c0.527-0.791,1.142-1.538,1.816-2.228c3.398-3.396,8.451-4.965,13.211-3.997c0.937,0.19,1.86,0.467,2.739,0.833
	c0.893,0.366,1.743,0.822,2.534,1.349c0.806,0.54,1.552,1.141,2.226,1.815c0.674,0.69,1.289,1.435,1.816,2.228
	c0.527,0.806,0.981,1.655,1.347,2.532c0.366,0.88,0.644,1.801,0.835,2.739c0.19,0.952,0.293,1.92,0.293,2.871
	c0,0.952-0.103,1.92-0.293,2.856c-0.19,0.936-0.469,1.86-0.835,2.739c-0.366,0.879-0.82,1.728-1.347,2.532
	c-0.527,0.791-1.142,1.539-1.816,2.228c-0.674,0.674-1.421,1.274-2.226,1.816c-0.791,0.526-1.64,0.981-2.534,1.347
	c-0.879,0.366-1.801,0.643-2.739,0.833C261.215,258.431,260.248,258.534,259.296,258.534z"/>
<path d="M420.406,122.719h-32.85l2.212-22.898h7.937c8.089,0,14.646-6.559,14.646-14.646s-6.557-14.646-14.646-14.646h-21.237
	h-0.311C369.19,30.521,334.238,0,292.269,0h-95.238c-41.97,0-76.922,30.521-83.888,70.528h-0.31H91.596
	c-8.089,0-14.646,6.559-14.646,14.646S83.507,99.82,91.596,99.82h7.937l18.857,195.26c0.01,0.101,0.021,0.204,0.032,0.303
	c1.806,15.348,9.264,28.789,20.14,38.353c-11.472,9.321-19.695,22.62-22.473,38.095c-0.031,0.167-0.057,0.335-0.082,0.504
	L98.335,495.271c-0.605,4.205,0.646,8.464,3.429,11.676c2.781,3.209,6.821,5.054,11.07,5.054h263.634
	c4.247,0,8.287-1.845,11.07-5.054c2.781-3.21,4.032-7.471,3.429-11.676l-17.672-122.935c-0.025-0.168-0.051-0.335-0.082-0.504
	c-2.778-15.474-11.001-28.773-22.473-38.095c10.876-9.563,18.334-23.004,20.14-38.353c0.012-0.1,0.022-0.202,0.032-0.303
	l4.387-45.428h45.109c8.089,0,14.646-6.559,14.646-14.646v-97.641C435.052,129.277,428.495,122.719,420.406,122.719z M197.03,29.293
	h95.238c25.747,0,47.482,17.504,53.935,41.235H143.097C149.548,46.796,171.285,29.293,197.03,29.293z M359.563,482.707H129.735
	l15.228-105.93c3.024-16.221,17.148-27.97,33.67-27.97h132.032c16.523,0,30.646,11.749,33.67,27.97L359.563,482.707z
	 M178.633,319.515h-0.135c-15.77,0-29.057-11.776-30.967-27.415l-3.243-33.575h71.068c8.089,0,14.646-6.559,14.646-14.646
	s-6.557-14.646-14.646-14.646h-73.896l-4.835-50.061h122.67c8.089,0,14.646-6.559,14.646-14.646c0-8.088-6.557-14.646-14.646-14.646
	h-125.5l-4.835-50.058h231.377l-18.57,192.28c-1.91,15.639-15.197,27.415-30.967,27.415h-0.136H178.633z M405.759,220.361h-27.633
	l6.601-68.35h21.034v68.35H405.759z"/>
</svg>