<?xml version="1.0" encoding="iso-8859-1"?>
<!-- Uploaded to: SVG Repo, www.svgrepo.com, Generator: SVG Repo Mixer Tools -->
<svg height="800px" width="800px" version="1.1" id="Layer_1" xmlns="http://www.w3.org/2000/svg" xmlns:xlink="http://www.w3.org/1999/xlink" 
	 viewBox="0 0 448 448" xml:space="preserve">
<g transform="translate(0 -1020.36)" shape-rendering="auto" image-rendering="auto" color-rendering="auto" color-interpolation="sRGB">
	<path style="fill:#5A3392;" d="M120.235,1244.303c-53.044-1.152-96.024,43.113-96.024,96.023
		c0.052,51.818,41.335,94.434,93.071,95.906c0.079,0.002,0.157,0.002,0.236,0c56.392,0.24,114.216,0.16,162.756,0.16
		c26.383,0,47.953-21.668,47.953-48.07c-0.03-19.189-13.861-32.58-25.276-41.93c-0.153-0.129-0.31-0.25-0.472-0.367
		c-48.658-34.025-88.732-62.646-138.425-90.828c-14.733-8.354-30.647-10.578-43.819-10.865L120.235,1244.303z"/>
	<path style="fill:#29A3EC;" d="M119.878,1260.367c11.62,0.24,24.967,2.268,36.378,8.74c48.691,27.611,88.172,55.738,136.654,89.645
		c0.019,0.014-0.019,0.16,0,0.16c10.298,8.447,19.234,18.217,19.252,29.41c0,17.77-14.167,32.008-31.89,32.008
		c-48.531,0-106.236,0.16-162.52-0.16h-0.121c-43.191-1.297-77.436-36.529-77.48-79.842c0-44.275,35.758-80.92,79.724-79.961
		H119.878z"/>
	<g>
		<path style="fill:#5A3392;" d="M15.471,1100.328c-4.436,0.229-7.847,4.01-7.619,8.445c0.228,4.436,4.009,7.848,8.446,7.619H96.14
			c4.436,0,8.032-3.596,8.032-8.031c0-4.438-3.596-8.033-8.032-8.033H16.298C16.022,1100.315,15.746,1100.315,15.471,1100.328z"/>
		<path style="fill:#5A3392;" d="M367.439,1068.321c-1.506,0.148-2.94,0.721-4.134,1.65l-63.779,47.951
			c-3.746,2.344-4.881,7.281-2.537,11.027c2.344,3.744,7.281,4.881,11.027,2.537c0.381-0.238,0.741-0.51,1.077-0.809l63.779-47.836
			c3.631-2.518,4.533-7.504,2.015-11.135c-1.672-2.41-4.531-3.713-7.447-3.393L367.439,1068.321z"/>
		<path style="fill:#5A3392;" d="M96.258,1452.295c-4.436,0-8.032,3.596-8.032,8.031c0,4.438,3.596,8.033,8.032,8.033h31.89
			c4.436,0,8.032-3.596,8.032-8.033c0-4.436-3.596-8.031-8.032-8.031H96.258z"/>
		<path style="fill:#5A3392;" d="M240.353,1452.295c-4.436,0-8.032,3.596-8.032,8.031c0,4.438,3.596,8.033,8.032,8.033h31.772
			c4.436,0,8.032-3.596,8.032-8.033c0-4.436-3.596-8.031-8.032-8.031H240.353z"/>
	</g>
	<path style="fill:#3CDEF6;" d="M124.451,1271.365c10.676,0.24,22.938,2.02,33.422,7.783c44.734,24.59,80.299,53.529,124.841,83.729
		c0.018,0.012-0.018,0.16,0,0.16c9.461,7.525,17.671,15.102,17.687,25.068c0,15.828-12.309,24.617-28.591,24.617
		c-44.587,0-97.603,0.16-149.313-0.16h-0.109c-39.681-1.152-71.144-31.41-71.184-69.984
		C51.205,1303.149,84.057,1270.51,124.451,1271.365L124.451,1271.365z"/>
	<g>
		<path style="fill:#5A3392;" d="M138.471,1343.328c-4.4,0.406-7.637,4.303-7.23,8.703c0.175,1.896,1.022,3.67,2.387,4.998
			l31.89,32.008c1.5,1.512,3.54,2.363,5.669,2.365h31.89c4.436-0.021,8.014-3.635,7.992-8.07c-0.021-4.404-3.587-7.971-7.992-7.992
			h-28.583l-29.528-29.527c-1.674-1.773-4.066-2.688-6.496-2.48L138.471,1343.328z"/>
		<path style="fill:#5A3392;" d="M120.235,1284.344c-30.833,0-55.984,25.15-55.984,55.984s25.151,55.984,55.984,55.984
			s55.984-25.15,55.984-55.984S151.068,1284.344,120.235,1284.344z"/>
	</g>
	<path style="fill:#EE746C;" d="M120.235,1300.289c22.186,0,39.921,17.854,39.921,40.039s-17.735,40.039-39.921,40.039
		s-40.039-17.854-40.039-40.039C80.195,1318.143,98.049,1300.289,120.235,1300.289z"/>
	<g>
		<path style="fill:#5A3392;" d="M39.802,1101.983l-15.236,4.723l48.425,153.66l15.236-4.844l-48.425-153.545V1101.983z"/>
		<path style="fill:#5A3392;" d="M367.676,1104.225c-3.202,0.248-5.946,2.385-6.969,5.43l-79.961,227.953
			c-1.904,3.988-0.214,8.764,3.773,10.668c3.988,1.902,8.763,0.213,10.667-3.773c0.241-0.506,0.429-1.035,0.56-1.58l79.961-227.953
			c1.527-4.146-0.597-8.746-4.744-10.271c-1.051-0.389-2.171-0.549-3.288-0.477L367.676,1104.225z"/>
		<path style="fill:#5A3392;" d="M431.809,1020.367c-2.934,0.125-5.563,1.847-6.85,4.486l-37.559,75.473h-59.055
			c-4.436-0.045-8.067,3.516-8.111,7.951c-0.044,4.436,3.516,8.066,7.951,8.111c0.053,0,0.106,0,0.16,0h64.016
			c3.02-0.039,5.76-1.773,7.087-4.486l39.803-79.843c2.043-3.918,0.523-8.75-3.395-10.793
			C434.609,1020.616,433.214,1020.307,431.809,1020.367L431.809,1020.367z"/>
	</g>
	<path style="fill:#FB9761;" d="M120.223,1308.432c17.674,0,31.802,14.223,31.802,31.896s-14.128,31.896-31.802,31.896
		s-31.896-14.223-31.896-31.896C88.327,1322.655,102.549,1308.432,120.223,1308.432z"/>
	<g>
		<path style="fill:#FFFFFF;" d="M103.689,1349.86c4.406-0.068,7.927-3.688,7.875-8.094c-0.001-4.355,3.429-7.852,8-7.908
			c4.419-0.002,7.999-3.586,7.998-8.004s-3.585-8-8.004-7.998c-0.079,0-0.157,0.002-0.236,0.004
			c-13.039,0.176-23.782,10.869-23.781,23.906c-0.052,4.418,3.488,8.043,7.906,8.094c0.073,0.002,0.146,0.002,0.219,0H103.689z"/>
		<path style="fill:#FFFFFF;" d="M284.675,1399.592c-4.406-0.068-7.927-3.688-7.875-8.094c0.001-4.354-3.429-7.85-8-7.906
			c-4.418-0.066-7.946-3.703-7.879-8.121s3.703-7.945,8.121-7.879c13.039,0.176,23.782,10.869,23.781,23.906
			c0.052,4.418-3.488,8.043-7.906,8.094c-0.073,0.002-0.146,0.002-0.219,0H284.675z"/>
	</g>
</g>
</svg>